<svg width="48" height="48" viewBox="0 0 48 48" fill="none" xmlns="http://www.w3.org/2000/svg">
<path d="M26.003 14.018C32.34 14.018 35.935 18.212 36.458 23.278H36.618C40.696 23.278 44.002 26.576 44.002 30.643C44.002 34.71 40.696 38.008 36.618 38.008H15.388C11.31 38.008 8.004 34.711 8.004 30.643C8.004 26.575 11.311 23.278 15.389 23.278H15.549C16.075 18.179 19.666 14.018 26.003 14.018ZM20 8C21.5379 7.99939 23.0527 8.37495 24.4122 9.09393C25.7718 9.81291 26.9348 10.8535 27.8 12.125C27.2027 12.0533 26.6016 12.0175 26 12.018C19.922 12.018 15.524 15.456 14.04 20.633L13.96 20.922L13.845 21.397L13.431 21.474C11.857 21.8071 10.395 22.5395 9.1858 23.6008C7.97654 24.662 7.0606 26.0165 6.526 27.534C5.4483 26.6931 4.66002 25.5367 4.27117 24.2262C3.88233 22.9157 3.91232 21.5165 4.35696 20.2239C4.80159 18.9313 5.6387 17.8097 6.75144 17.0157C7.86418 16.2218 9.19704 15.795 10.564 15.795H10.706C11.0925 13.6108 12.2358 11.6325 13.9353 10.2072C15.6348 8.78179 17.7819 8.00037 20 8Z" fill="black"/>
</svg>
