<svg width="30" height="30" viewBox="0 0 30 30" fill="none" xmlns="http://www.w3.org/2000/svg">
<path d="M9.21152 13.5862C9.28215 13.5138 9.54883 13.2038 9.79725 12.9488C11.2537 11.345 15.053 8.72 17.0415 7.91875C17.3435 7.79 18.107 7.5175 18.515 7.5C18.9059 7.5 19.2785 7.59 19.6341 7.7725C20.0773 8.0275 20.4329 8.42875 20.6277 8.9025C20.7532 9.23125 20.948 10.215 20.948 10.2325C21.1428 11.3088 21.25 13.0575 21.25 14.99C21.25 16.8313 21.1428 18.5087 20.9833 19.6012C20.9651 19.6187 20.7702 20.8413 20.5571 21.26C20.1662 22.025 19.4027 22.5 18.5856 22.5H18.515C17.9828 22.4812 16.8637 22.0062 16.8637 21.9887C14.9823 21.1862 11.2707 18.69 9.77898 17.0312C9.77898 17.0312 9.35887 16.605 9.17621 16.3387C8.89126 15.9563 8.75 15.4825 8.75 15.0087C8.75 14.48 8.90952 13.9875 9.21152 13.5862Z" fill="white"/>
</svg>
