<svg width="26" height="24" viewBox="0 0 26 24" fill="none" xmlns="http://www.w3.org/2000/svg">
<path d="M19.1742 0.75C20.8505 0.75 22.463 1.4125 23.6492 2.60125C24.8367 3.7875 25.5005 5.3875 25.5005 7.0625V16.9375C25.5005 20.425 22.663 23.25 19.1742 23.25H6.82549C3.33674 23.25 0.500488 20.425 0.500488 16.9375V7.0625C0.500488 3.575 3.32424 0.75 6.82549 0.75H19.1742ZM20.588 7.25C20.3255 7.23625 20.0755 7.325 19.8867 7.5L14.2505 12C13.5255 12.6012 12.4867 12.6012 11.7505 12L6.12549 7.5C5.73674 7.2125 5.19924 7.25 4.87549 7.5875C4.53799 7.925 4.50049 8.4625 4.78674 8.8375L4.95049 9L10.638 13.4375C11.338 13.9875 12.1867 14.2875 13.0755 14.2875C13.9617 14.2875 14.8255 13.9875 15.5242 13.4375L21.163 8.925L21.263 8.825C21.5617 8.4625 21.5617 7.9375 21.2492 7.575C21.0755 7.38875 20.8367 7.275 20.588 7.25Z" fill="black" fill-opacity="0.5"/>
</svg>
