<svg width="36" height="36" viewBox="0 0 36 36" fill="none" xmlns="http://www.w3.org/2000/svg">
<g clip-path="url(#clip0_16_120)">
<path d="M26.2943 21.9096C26.2943 23.4216 26.7245 24.0246 27.8495 24.0246C30.3569 24.0246 31.9535 20.8296 31.9535 15.516C31.9535 7.39441 26.0351 3.50641 18.6461 3.50641C11.0447 3.50641 4.13091 8.60401 4.13091 18.2376C4.13091 27.4392 10.1789 32.4504 19.4669 32.4504C22.6205 32.4504 24.7373 32.1048 27.9755 31.0248L28.6703 33.9174C25.4735 34.956 22.0571 35.2566 19.4237 35.2566C7.24131 35.2566 0.716309 28.5606 0.716309 18.2358C0.716309 7.82461 8.27811 0.739807 18.6893 0.739807C29.5325 0.739807 35.2763 7.21981 35.2763 15.1686C35.2763 21.9078 33.1613 27.0486 26.5085 27.0486C23.4827 27.0486 21.4973 25.839 21.2381 23.1588C20.4605 26.1396 18.3869 27.0486 15.5771 27.0486C11.8187 27.0486 8.66511 24.1524 8.66511 18.3222C8.66511 12.447 11.4317 8.81821 16.3997 8.81821C19.0349 8.81821 20.6765 9.85501 21.4073 11.4966L22.6619 9.20701H26.2907V21.9096H26.2943ZM20.9825 16.2072C20.9825 13.833 19.2095 12.8376 17.7407 12.8376C16.1423 12.8376 14.3729 14.1318 14.3729 17.9352C14.3729 20.9592 15.7121 22.644 17.7407 22.644C19.1663 22.644 20.9825 21.7368 20.9825 19.2312V16.2072Z" fill="black"/>
</g>
<defs>
<clipPath id="clip0_16_120">
<rect width="36" height="36" fill="white"/>
</clipPath>
</defs>
</svg>
