<?xml version="1.0" encoding="UTF-8" standalone="no"?>
<svg
   xmlns:dc="http://purl.org/dc/elements/1.1/"
   xmlns:cc="http://creativecommons.org/ns#"
   xmlns:rdf="http://www.w3.org/1999/02/22-rdf-syntax-ns#"
   xmlns:svg="http://www.w3.org/2000/svg"
   xmlns="http://www.w3.org/2000/svg"
   viewBox="0 0 748.24664 403.75333"
   width="252" 
   height="40"
   xml:space="preserve"
   id="svg2"
   version="1.1"><metadata
     id="metadata8"><rdf:RDF><cc:Work
         rdf:about=""><dc:format>image/svg+xml</dc:format><dc:type
           rdf:resource="http://purl.org/dc/dcmitype/StillImage" /></cc:Work></rdf:RDF></metadata><defs
     id="defs6"><clipPath
       id="clipPath34"
       clipPathUnits="userSpaceOnUse"><path
         id="path32"
         d="M 0,302.815 H 561.185 V 0 H 0 Z" /></clipPath></defs><g
     transform="matrix(1.3333333,0,0,-1.3333333,0,403.75333)"
     id="g10"><g
       transform="translate(96.3657,132.5748)"
       id="g12"><path
         id="path14"
         style="fill:#d1120a;fill-opacity:1;fill-rule:nonzero;stroke:none"
         d="m 0,0 h 11.314 l 2.556,14.476 h 20.177 l 1.514,8.812 H 15.42 l 0.005,0.027 H 4.119 Z" /></g><g
       transform="translate(134.5071,170.3386)"
       id="g16"><path
         id="path18"
         style="fill:#000000;fill-opacity:1;fill-rule:nonzero;stroke:none"
         d="m 0,0 h -31.47 l -1.982,-11.219 h 31.458 z" /></g><g
       transform="translate(130.9975,132.5748)"
       id="g20"><path
         id="path22"
         style="fill:#d1120a;fill-opacity:1;fill-rule:nonzero;stroke:none"
         d="m 0,0 h 11.314 l 4.118,23.315 H 4.119 Z" /></g><g
       transform="translate(148.9824,170.3386)"
       id="g24"><path
         id="path26"
         style="fill:#000000;fill-opacity:1;fill-rule:nonzero;stroke:none"
         d="m 0,0 h -11.314 l -1.981,-11.219 h 11.313 z" /></g><g
       id="g28"><g
         clip-path="url(#clipPath34)"
         id="g30"><g
           transform="translate(172.9261,155.8626)"
           id="g36"><path
             id="path38"
             style="fill:#d1120a;fill-opacity:1;fill-rule:nonzero;stroke:none"
             d="m 0,0 h -11.985 l 0.005,0.027 h -11.306 l -4.12,-23.315 h 11.314 l 2.557,14.476 H -1.551 L -4.1,-23.288 H 7.212 l 2.612,14.47 c 0,0.21 -0.01,0.419 -0.032,0.63 0,1.092 -0.567,2.35 -1.699,3.778 1.935,1.637 3.009,3.106 3.219,4.408 l 0.005,0.029 H 0.005 Z" /></g><g
           transform="translate(185.2358,161.5262)"
           id="g40"><path
             id="path42"
             style="fill:#000000;fill-opacity:1;fill-rule:nonzero;stroke:none"
             d="m 0,0 c 0.083,0.503 0.126,1.007 0.126,1.51 0,2.098 -0.693,3.84 -2.077,5.224 -1.385,1.385 -3.147,2.078 -5.287,2.078 h -25.805 l -1.982,-11.218 h 34.601 z" /></g><g
           transform="translate(183.2212,132.5748)"
           id="g44"><path
             id="path46"
             style="fill:#d1120a;fill-opacity:1;fill-rule:nonzero;stroke:none"
             d="m 0,0 h 31.47 l 2.014,11.329 H 16.133 c -0.526,-0.934 -1.515,-1.573 -2.664,-1.573 -1.695,0 -3.07,1.374 -3.07,3.07 0,1.695 1.375,3.069 3.07,3.069 1.086,0 2.036,-0.567 2.581,-1.419 h 17.997 l 1.514,8.812 H 15.362 l 0.005,0.027 H 4.119 Z" /></g><g
           transform="translate(221.3626,170.3386)"
           id="g48"><path
             id="path50"
             style="fill:#000000;fill-opacity:1;fill-rule:nonzero;stroke:none"
             d="m 0,0 h -31.47 l -1.982,-11.219 H -2 Z" /></g><g
           transform="translate(259.1258,170.3386)"
           id="g52"><path
             id="path54"
             style="fill:#000000;fill-opacity:1;fill-rule:nonzero;stroke:none"
             d="m 0,0 h -25.806 c -2.434,0 -4.669,-0.86 -6.703,-2.58 -2.036,-1.722 -3.263,-3.799 -3.682,-6.232 l -0.424,-2.407 h 34.576 z" /></g><g
           transform="translate(221.9371,155.8605)"
           id="g56"><path
             id="path58"
             style="fill:#d1120a;fill-opacity:1;fill-rule:nonzero;stroke:none"
             d="m 0,0 c -0.099,-0.503 -0.148,-1.026 -0.148,-1.57 0,-2.057 0.692,-3.778 2.079,-5.163 1.385,-1.384 3.17,-2.077 5.355,-2.077 h 11.278 c 0.546,0.852 1.495,1.42 2.581,1.42 1.696,0 3.07,-1.375 3.07,-3.07 0,-1.695 -1.374,-3.07 -3.07,-3.07 -1.149,0 -2.138,0.639 -2.664,1.573 H -2.041 L -4.1,-23.286 h 25.806 c 2.434,0 4.668,0.86 6.704,2.581 2.034,1.72 3.262,3.797 3.682,6.231 l 0.997,5.666 c 0.091,0.503 0.137,1.005 0.137,1.508 0,2.098 -0.693,3.839 -2.078,5.224 -1.385,1.385 -3.169,2.078 -5.353,2.078 H 11.311 L 11.316,0.03 H 0.005 Z" /></g><g
           transform="translate(291.1613,155.8626)"
           id="g60"><path
             id="path62"
             style="fill:#d1120a;fill-opacity:1;fill-rule:nonzero;stroke:none"
             d="m 0,0 h -20.198 l 0.004,0.027 h -11.247 l -4.119,-23.315 h 31.469 l 2.014,11.329 h -17.542 c -0.527,-0.934 -1.516,-1.573 -2.665,-1.573 -1.695,0 -3.07,1.375 -3.07,3.07 0,1.695 1.375,3.07 3.07,3.07 1.086,0 2.036,-0.568 2.581,-1.42 h 18.19 z" /></g><g
           transform="translate(293.7425,170.3386)"
           id="g64"><path
             id="path66"
             style="fill:#000000;fill-opacity:1;fill-rule:nonzero;stroke:none"
             d="m 0,0 h -31.47 l -1.982,-11.219 h 31.451 z" /></g><g
           transform="translate(330.1206,163.0396)"
           id="g68"><path
             id="path70"
             style="fill:#d1120a;fill-opacity:1;fill-rule:nonzero;stroke:none"
             d="m 0,0 c 0,-0.507 -0.042,-1.006 -0.127,-1.513 l -5.094,-28.95 h -34.623 l 6.672,37.76 h 9.521 L -24.2,3.582 c 0.214,1.45 1.991,3.715 5.495,3.715 h 11.344 c 2.14,0 3.899,-0.689 5.285,-2.076 C -0.69,3.835 0,2.097 0,0" /></g><g
           transform="translate(332.0798,155.8605)"
           id="g72"><path
             id="path74"
             style="fill:#d1120a;fill-opacity:1;fill-rule:nonzero;stroke:none"
             d="m 0,0 c -0.1,-0.503 -0.148,-1.026 -0.148,-1.57 0,-2.057 0.692,-3.778 2.078,-5.163 C 3.316,-8.117 5.1,-8.81 7.286,-8.81 h 12 c 0.546,0.852 1.495,1.42 2.581,1.42 1.696,0 3.07,-1.375 3.07,-3.07 0,-1.695 -1.374,-3.07 -3.07,-3.07 -1.149,0 -2.138,0.639 -2.664,1.573 H -2.041 L -4.1,-23.286 h 25.806 c 2.433,0 4.668,0.86 6.703,2.581 2.035,1.72 3.262,3.797 3.682,6.231 l 0.997,5.666 c 0.092,0.503 0.138,1.005 0.138,1.508 0,2.098 -0.694,3.839 -2.078,5.224 -1.386,1.385 -3.17,2.078 -5.353,2.078 H 11.311 L 11.316,0.03 H 0.005 Z" /></g><g
           transform="translate(369.268,170.3386)"
           id="g76"><path
             id="path78"
             style="fill:#000000;fill-opacity:1;fill-rule:nonzero;stroke:none"
             d="m 0,0 h -25.806 c -2.434,0 -4.669,-0.86 -6.703,-2.58 -2.036,-1.722 -3.264,-3.799 -3.682,-6.232 l -0.424,-2.407 h 34.576 z" /></g><g
           transform="translate(403.8848,170.3386)"
           id="g80"><path
             id="path82"
             style="fill:#000000;fill-opacity:1;fill-rule:nonzero;stroke:none"
             d="m 0,0 h -31.47 l -1.982,-11.219 h 31.451 z" /></g><g
           transform="translate(365.7433,132.5748)"
           id="g84"><path
             id="path86"
             style="fill:#d1120a;fill-opacity:1;fill-rule:nonzero;stroke:none"
             d="m 0,0 h 31.469 l 2.015,11.329 h -17.7 C 15.258,10.395 14.269,9.756 13.12,9.756 c -1.695,0 -3.07,1.374 -3.07,3.07 0,1.695 1.375,3.069 3.07,3.069 1.086,0 2.035,-0.567 2.581,-1.419 h 18.346 l 1.513,8.812 H 15.362 l 0.005,0.027 H 4.119 Z" /></g><g
           transform="translate(416.5356,155.8801)"
           id="g88"><path
             id="path90"
             style="fill:#000000;fill-opacity:1;fill-rule:nonzero;stroke:none"
             d="m 0,0 -4.327,-23.137 h -7.338 L -7.339,0 Z" /></g><g
           transform="translate(432.3874,148.9389)"
           id="g92"><path
             id="path94"
             style="fill:#000000;fill-opacity:1;fill-rule:nonzero;stroke:none"
             d="m 0,0 h -7.783 l -1.714,-9.255 h 7.783 z M 7.703,2.468 C 7.703,2.16 7.675,1.851 7.621,1.543 l -2.286,-12.34 c -0.272,-1.491 -1.068,-2.764 -2.388,-3.818 -1.32,-1.054 -2.77,-1.581 -4.348,-1.581 h -11.022 c -1.388,0 -2.531,0.424 -3.43,1.273 -0.898,0.848 -1.346,1.914 -1.346,3.2 0,0.309 0.027,0.617 0.081,0.926 l 2.286,12.34 c 0.272,1.49 1.068,2.763 2.389,3.817 1.319,1.054 2.769,1.581 4.347,1.581 H 2.927 C 4.314,6.941 5.458,6.517 6.356,5.669 7.254,4.82 7.703,3.753 7.703,2.468" /></g><g
           transform="translate(464.8195,155.8801)"
           id="g96"><path
             id="path98"
             style="fill:#000000;fill-opacity:1;fill-rule:nonzero;stroke:none"
             d="m 0,0 -1.308,-6.941 h -7.561 l -3.021,-16.196 h -7.337 l 3.021,16.196 h -7.553 L -22.452,0 Z" /></g><g
           transform="translate(308.1596,132.4955)"
           id="g100"><path
             id="path102"
             style="fill:#ffffff;fill-opacity:1;fill-rule:nonzero;stroke:none"
             d="m 0,0 c -1.175,-0.023 -1.955,0.281 -2.781,0.69 -6.742,3.334 -8.803,10.982 -4.629,17.265 1.028,1.548 2.332,2.916 3.541,4.341 0.473,0.557 0.985,1.079 1.512,1.585 2.081,1.995 3.457,4.303 3.25,7.609 5.674,-4.073 7.754,-9.529 5.951,-15.758 1.122,0.283 2.398,1.454 2.35,3.429 2.713,-2.101 4.5,-7.468 3.496,-11.135 C 11.503,3.688 8.516,1.074 4.002,-0.019 4.94,1.395 5.455,3.086 5.306,4.774 5.25,5.41 5.118,6.029 4.904,6.589 4.709,7.099 4.388,7.55 4.029,7.963 2.842,9.327 1.962,10.833 1.665,12.666 -3.585,10.792 -4.443,3.887 0,0" /></g></g></g></g></svg>