<svg width="238" height="25" viewBox="0 0 238 25" fill="none" xmlns="http://www.w3.org/2000/svg">
<path d="M0.0249023 24.9427H7.33913L8.98149 15.5851H22.0249L22.9988 9.8941H9.99364V9.875H2.67941L0.0249023 24.9427Z" fill="#D1120A"/>
<path d="M24.6603 0.555542H4.34091L3.0614 7.79338H23.3808L24.6603 0.555542Z" fill="black"/>
<path d="M22.3875 24.9427H29.7017L32.3562 9.875H25.0611L22.3875 24.9427Z" fill="#D1120A"/>
<path d="M33.9986 0.555542H26.7035L25.424 7.79338H32.7191L33.9986 0.555542Z" fill="black"/>
<path d="M49.4674 9.8941H41.733V9.875H34.4379L31.7643 24.9427H39.0785L40.7209 15.5851H48.4744L46.832 24.9427H54.1271L55.8077 15.6042C55.8077 15.4514 55.8077 15.3177 55.7886 15.184C55.7886 14.4774 55.4257 13.6753 54.7001 12.7396C55.9414 11.6892 56.648 10.7344 56.7817 9.8941V9.875H49.4674V9.8941Z" fill="#D1120A"/>
<path d="M57.4119 6.24651C57.4692 5.92186 57.5074 5.5972 57.5074 5.27255C57.5074 3.91665 57.049 2.78991 56.1515 1.89235C55.273 0.994777 54.1272 0.555542 52.7522 0.555542H36.0803L34.8008 7.79338H57.1445L57.4119 6.24651Z" fill="black"/>
<path d="M56.1133 24.9427H76.4327L77.7504 17.6285H66.5404C66.1966 18.2205 65.5664 18.6406 64.8216 18.6406C63.714 18.6406 62.8355 17.7431 62.8355 16.6545C62.8355 15.566 63.714 14.6684 64.8216 14.6684C65.5091 14.6684 66.1393 15.0503 66.4831 15.5851H78.1133L79.0872 9.8941H66.0438V9.875H58.7869L56.1133 24.9427Z" fill="#D1120A"/>
<path d="M80.7486 0.555542H60.4292L59.1497 7.79338H79.45L80.7486 0.555542Z" fill="black"/>
<path d="M105.136 0.555542H88.4639C86.8979 0.555542 85.4656 1.10936 84.1479 2.217C82.8302 3.32463 82.0281 4.68054 81.7608 6.24651L81.4934 7.79338H103.818L105.136 0.555542Z" fill="black"/>
<path d="M81.1306 9.8941C81.0542 10.2187 81.0351 10.5625 81.0351 10.9253C81.0351 12.2431 81.4743 13.3507 82.3719 14.2483C83.2695 15.1458 84.4153 15.5851 85.8285 15.5851H93.1046C93.4674 15.0503 94.0785 14.6684 94.7851 14.6684C95.8736 14.6684 96.7521 15.566 96.7521 16.6545C96.7521 17.7431 95.8736 18.6406 94.7851 18.6406C94.0403 18.6406 93.391 18.2205 93.0473 17.6285H79.7938L78.4761 24.9427H95.148C96.7139 24.9427 98.1462 24.3889 99.4639 23.2813C100.782 22.1545 101.584 20.8177 101.851 19.2517L102.481 15.5851C102.558 15.2604 102.577 14.9358 102.577 14.6111C102.577 13.2552 102.138 12.1285 101.24 11.25C100.342 10.3524 99.1966 9.8941 97.7834 9.8941H88.4257V9.875H81.1306V9.8941Z" fill="#D1120A"/>
<path d="M125.818 9.8941H112.775L112.794 9.875H105.518L102.863 24.9427H123.183L124.481 17.6285H113.157C112.813 18.2205 112.183 18.6406 111.438 18.6406C110.349 18.6406 109.452 17.7431 109.452 16.6545C109.452 15.566 110.349 14.6684 111.438 14.6684C112.145 14.6684 112.756 15.0503 113.099 15.5851H124.844L125.818 9.8941Z" fill="#D1120A"/>
<path d="M127.499 0.555542H107.16L105.881 7.79338H126.2L127.499 0.555542Z" fill="black"/>
<path d="M150.988 5.27255C150.988 5.5972 150.95 5.92186 150.912 6.24651L147.608 24.9427H125.245L129.561 0.555542H135.711L135.348 2.96179C135.5 2.00693 136.646 0.555542 138.9 0.555542H146.233C147.608 0.555542 148.754 0.994776 149.651 1.89235C150.549 2.78991 150.988 3.91665 150.988 5.27255Z" fill="#D1120A"/>
<path d="M152.249 9.8941C152.191 10.2187 152.153 10.5625 152.153 10.9253C152.153 12.2431 152.593 13.3507 153.49 14.2483C154.388 15.1458 155.553 15.5851 156.947 15.5851H164.7C165.063 15.0503 165.674 14.6684 166.381 14.6684C167.469 14.6684 168.348 15.566 168.348 16.6545C168.348 17.7431 167.469 18.6406 166.381 18.6406C165.636 18.6406 164.987 18.2205 164.643 17.6285H150.931L149.594 24.9427H166.266C167.832 24.9427 169.283 24.3889 170.601 23.2813C171.919 22.1545 172.702 20.8177 172.969 19.2517L173.619 15.5851C173.676 15.2604 173.714 14.9358 173.714 14.6111C173.714 13.2552 173.256 12.1285 172.358 11.25C171.48 10.3524 170.315 9.8941 168.902 9.8941H159.563V9.875H152.249V9.8941Z" fill="#D1120A"/>
<path d="M176.273 0.555542H159.601C158.035 0.555542 156.584 1.10936 155.266 2.217C153.948 3.32463 153.165 4.68054 152.898 6.24651L152.611 7.79338H174.955L176.273 0.555542Z" fill="black"/>
<path d="M198.617 0.555542H178.297L177.018 7.79338H197.337L198.617 0.555542Z" fill="black"/>
<path d="M173.981 24.9427H194.32L195.618 17.6285H184.179C183.835 18.2205 183.205 18.6406 182.46 18.6406C181.372 18.6406 180.474 17.7431 180.474 16.6545C180.474 15.566 181.372 14.6684 182.46 14.6684C183.167 14.6684 183.778 15.0503 184.122 15.5851H195.981L196.955 9.8941H183.912V9.875H176.655L173.981 24.9427Z" fill="#D1120A"/>
<path d="M206.79 9.89404L204.002 24.8281H199.266L202.054 9.89404H206.79Z" fill="black"/>
<path d="M217.026 14.3628H212.004L210.896 20.3402H215.919L217.026 14.3628ZM222.011 12.7777C222.011 12.9687 221.992 13.1788 221.954 13.3697L220.483 21.3524C220.292 22.3072 219.776 23.1284 218.936 23.8159C218.077 24.4843 217.141 24.8281 216.129 24.8281H209.006C208.108 24.8281 207.363 24.5607 206.79 24.0069C206.217 23.4531 205.912 22.7656 205.912 21.9444C205.912 21.7343 205.931 21.5433 205.969 21.3524L207.459 13.3697C207.631 12.4149 208.146 11.5937 208.987 10.9062C209.846 10.2378 210.782 9.89404 211.794 9.89404H218.917C219.815 9.89404 220.559 10.1614 221.132 10.7152C221.705 11.2499 222.011 11.9565 222.011 12.7777Z" fill="black"/>
<path d="M237.976 9.89404L237.136 14.3628H232.247L230.299 24.8281H225.563L227.511 14.3628H222.622L223.481 9.89404H237.976Z" fill="black"/>
<path d="M136.799 24.9999C136.035 24.9999 135.539 24.8089 135.004 24.5416C130.65 22.3836 129.313 17.4565 132.025 13.3888C132.674 12.3957 133.514 11.5173 134.297 10.6006C134.603 10.2378 134.947 9.89401 135.29 9.56936C136.627 8.28984 137.506 6.78117 137.372 4.66138C141.039 7.27769 142.395 10.8107 141.23 14.8402C141.955 14.6492 142.776 13.8853 142.738 12.6249C144.495 13.9808 145.641 17.4374 144.992 19.8055C144.228 22.6127 142.299 24.2933 139.396 24.9999C139.988 24.0832 140.332 22.9947 140.237 21.9061C140.198 21.5051 140.103 21.1041 139.969 20.7412C139.835 20.3975 139.645 20.111 139.396 19.8436C138.632 18.9652 138.079 17.9912 137.888 16.8072C134.488 18.0294 133.934 22.4791 136.799 24.9999Z" fill="white"/>
</svg>
