<?xml version="1.0" encoding="UTF-8"?>
<svg xmlns="http://www.w3.org/2000/svg" xmlns:xlink="http://www.w3.org/1999/xlink" width="252px" height="40px" viewBox="0 0 252 40" version="1.1">
<g id="surface1">
<path style=" stroke:none;fill-rule:nonzero;fill:rgb(81.960784%,7.058824%,3.921569%);fill-opacity:1;" d="M 101.664062 22.488281 L 103.160156 22.488281 L 103.496094 20.574219 L 106.164062 20.574219 L 106.363281 19.410156 L 103.703125 19.410156 L 103.703125 19.40625 L 102.207031 19.40625 Z M 101.664062 22.488281 "/>
<path style=" stroke:none;fill-rule:nonzero;fill:rgb(0%,0%,0%);fill-opacity:1;" d="M 106.703125 17.5 L 102.546875 17.5 L 102.285156 18.980469 L 106.441406 18.980469 Z M 106.703125 17.5 "/>
<path style=" stroke:none;fill-rule:nonzero;fill:rgb(81.960784%,7.058824%,3.921569%);fill-opacity:1;" d="M 106.238281 22.488281 L 107.734375 22.488281 L 108.277344 19.40625 L 106.785156 19.40625 Z M 106.238281 22.488281 "/>
<path style=" stroke:none;fill-rule:nonzero;fill:rgb(0%,0%,0%);fill-opacity:1;" d="M 108.613281 17.5 L 107.121094 17.5 L 106.859375 18.980469 L 108.351562 18.980469 Z M 108.613281 17.5 "/>
<path style=" stroke:none;fill-rule:nonzero;fill:rgb(81.960784%,7.058824%,3.921569%);fill-opacity:1;" d="M 111.777344 19.410156 L 110.195312 19.410156 L 110.195312 19.40625 L 108.703125 19.40625 L 108.15625 22.488281 L 109.652344 22.488281 L 109.988281 20.574219 L 111.574219 20.574219 L 111.238281 22.488281 L 112.730469 22.488281 L 113.074219 20.578125 C 113.074219 20.546875 113.074219 20.519531 113.070312 20.492188 C 113.070312 20.347656 112.996094 20.183594 112.847656 19.992188 C 113.101562 19.777344 113.246094 19.582031 113.273438 19.410156 L 113.273438 19.40625 L 111.777344 19.40625 Z M 111.777344 19.410156 "/>
<path style=" stroke:none;fill-rule:nonzero;fill:rgb(0%,0%,0%);fill-opacity:1;" d="M 113.402344 18.664062 C 113.414062 18.597656 113.421875 18.53125 113.421875 18.464844 C 113.421875 18.1875 113.328125 17.957031 113.144531 17.773438 C 112.964844 17.589844 112.730469 17.5 112.449219 17.5 L 109.039062 17.5 L 108.777344 18.980469 L 113.347656 18.980469 Z M 113.402344 18.664062 "/>
<path style=" stroke:none;fill-rule:nonzero;fill:rgb(81.960784%,7.058824%,3.921569%);fill-opacity:1;" d="M 113.136719 22.488281 L 117.292969 22.488281 L 117.5625 20.992188 L 115.269531 20.992188 C 115.199219 21.113281 115.070312 21.199219 114.917969 21.199219 C 114.691406 21.199219 114.511719 21.015625 114.511719 20.792969 C 114.511719 20.570312 114.691406 20.386719 114.917969 20.386719 C 115.058594 20.386719 115.1875 20.464844 115.257812 20.574219 L 117.636719 20.574219 L 117.835938 19.410156 L 115.167969 19.410156 L 115.167969 19.40625 L 113.683594 19.40625 Z M 113.136719 22.488281 "/>
<path style=" stroke:none;fill-rule:nonzero;fill:rgb(0%,0%,0%);fill-opacity:1;" d="M 118.175781 17.5 L 114.019531 17.5 L 113.757812 18.980469 L 117.910156 18.980469 Z M 118.175781 17.5 "/>
<path style=" stroke:none;fill-rule:nonzero;fill:rgb(0%,0%,0%);fill-opacity:1;" d="M 123.164062 17.5 L 119.753906 17.5 C 119.433594 17.5 119.140625 17.613281 118.871094 17.839844 C 118.601562 18.066406 118.4375 18.34375 118.382812 18.664062 L 118.328125 18.980469 L 122.894531 18.980469 Z M 123.164062 17.5 "/>
<path style=" stroke:none;fill-rule:nonzero;fill:rgb(81.960784%,7.058824%,3.921569%);fill-opacity:1;" d="M 118.253906 19.410156 C 118.238281 19.476562 118.234375 19.546875 118.234375 19.621094 C 118.234375 19.890625 118.324219 20.117188 118.507812 20.300781 C 118.691406 20.484375 118.925781 20.574219 119.214844 20.574219 L 120.703125 20.574219 C 120.777344 20.464844 120.902344 20.386719 121.046875 20.386719 C 121.269531 20.386719 121.449219 20.570312 121.449219 20.792969 C 121.449219 21.015625 121.269531 21.199219 121.046875 21.199219 C 120.894531 21.199219 120.761719 21.113281 120.691406 20.992188 L 117.980469 20.992188 L 117.710938 22.488281 L 121.121094 22.488281 C 121.441406 22.488281 121.734375 22.375 122.003906 22.148438 C 122.273438 21.917969 122.4375 21.644531 122.492188 21.324219 L 122.621094 20.574219 C 122.636719 20.507812 122.640625 20.441406 122.640625 20.375 C 122.640625 20.097656 122.550781 19.867188 122.367188 19.6875 C 122.183594 19.503906 121.949219 19.410156 121.660156 19.410156 L 119.746094 19.410156 L 119.746094 19.40625 L 118.253906 19.40625 Z M 118.253906 19.410156 "/>
<path style=" stroke:none;fill-rule:nonzero;fill:rgb(81.960784%,7.058824%,3.921569%);fill-opacity:1;" d="M 127.394531 19.410156 L 124.726562 19.410156 L 124.730469 19.40625 L 123.242188 19.40625 L 122.699219 22.488281 L 126.855469 22.488281 L 127.121094 20.992188 L 124.804688 20.992188 C 124.734375 21.113281 124.605469 21.199219 124.453125 21.199219 C 124.230469 21.199219 124.046875 21.015625 124.046875 20.792969 C 124.046875 20.570312 124.230469 20.386719 124.453125 20.386719 C 124.597656 20.386719 124.722656 20.464844 124.792969 20.574219 L 127.195312 20.574219 Z M 127.394531 19.410156 "/>
<path style=" stroke:none;fill-rule:nonzero;fill:rgb(0%,0%,0%);fill-opacity:1;" d="M 127.738281 17.5 L 123.578125 17.5 L 123.316406 18.980469 L 127.472656 18.980469 Z M 127.738281 17.5 "/>
<path style=" stroke:none;fill-rule:nonzero;fill:rgb(81.960784%,7.058824%,3.921569%);fill-opacity:1;" d="M 132.542969 18.464844 C 132.542969 18.53125 132.535156 18.597656 132.527344 18.664062 L 131.851562 22.488281 L 127.277344 22.488281 L 128.160156 17.5 L 129.417969 17.5 L 129.34375 17.992188 C 129.375 17.796875 129.609375 17.5 130.070312 17.5 L 131.570312 17.5 C 131.851562 17.5 132.085938 17.589844 132.269531 17.773438 C 132.453125 17.957031 132.542969 18.1875 132.542969 18.464844 "/>
<path style=" stroke:none;fill-rule:nonzero;fill:rgb(81.960784%,7.058824%,3.921569%);fill-opacity:1;" d="M 132.800781 19.410156 C 132.789062 19.476562 132.78125 19.546875 132.78125 19.621094 C 132.78125 19.890625 132.871094 20.117188 133.054688 20.300781 C 133.238281 20.484375 133.476562 20.574219 133.761719 20.574219 L 135.347656 20.574219 C 135.421875 20.464844 135.546875 20.386719 135.691406 20.386719 C 135.914062 20.386719 136.09375 20.570312 136.09375 20.792969 C 136.09375 21.015625 135.914062 21.199219 135.691406 21.199219 C 135.539062 21.199219 135.40625 21.113281 135.335938 20.992188 L 132.53125 20.992188 L 132.257812 22.488281 L 135.667969 22.488281 C 135.988281 22.488281 136.285156 22.375 136.554688 22.148438 C 136.824219 21.917969 136.984375 21.644531 137.039062 21.324219 L 137.171875 20.574219 C 137.183594 20.507812 137.191406 20.441406 137.191406 20.375 C 137.191406 20.097656 137.097656 19.867188 136.914062 19.6875 C 136.734375 19.503906 136.496094 19.410156 136.207031 19.410156 L 134.296875 19.410156 L 134.296875 19.40625 L 132.800781 19.40625 Z M 132.800781 19.410156 "/>
<path style=" stroke:none;fill-rule:nonzero;fill:rgb(0%,0%,0%);fill-opacity:1;" d="M 137.714844 17.5 L 134.304688 17.5 C 133.984375 17.5 133.6875 17.613281 133.417969 17.839844 C 133.148438 18.066406 132.988281 18.34375 132.933594 18.664062 L 132.875 18.980469 L 137.445312 18.980469 Z M 137.714844 17.5 "/>
<path style=" stroke:none;fill-rule:nonzero;fill:rgb(0%,0%,0%);fill-opacity:1;" d="M 142.285156 17.5 L 138.128906 17.5 L 137.867188 18.980469 L 142.023438 18.980469 Z M 142.285156 17.5 "/>
<path style=" stroke:none;fill-rule:nonzero;fill:rgb(81.960784%,7.058824%,3.921569%);fill-opacity:1;" d="M 137.246094 22.488281 L 141.40625 22.488281 L 141.671875 20.992188 L 139.332031 20.992188 C 139.261719 21.113281 139.132812 21.199219 138.980469 21.199219 C 138.757812 21.199219 138.574219 21.015625 138.574219 20.792969 C 138.574219 20.570312 138.757812 20.386719 138.980469 20.386719 C 139.125 20.386719 139.25 20.464844 139.320312 20.574219 L 141.746094 20.574219 L 141.945312 19.410156 L 139.277344 19.410156 L 139.277344 19.40625 L 137.792969 19.40625 Z M 137.246094 22.488281 "/>
<path style=" stroke:none;fill-rule:nonzero;fill:rgb(0%,0%,0%);fill-opacity:1;" d="M 143.957031 19.410156 L 143.386719 22.464844 L 142.417969 22.464844 L 142.988281 19.410156 Z M 143.957031 19.410156 "/>
<path style=" stroke:none;fill-rule:nonzero;fill:rgb(0%,0%,0%);fill-opacity:1;" d="M 146.050781 20.324219 L 145.023438 20.324219 L 144.796875 21.546875 L 145.824219 21.546875 Z M 147.070312 20 C 147.070312 20.039062 147.066406 20.082031 147.058594 20.121094 L 146.757812 21.753906 C 146.71875 21.949219 146.613281 22.117188 146.441406 22.257812 C 146.265625 22.394531 146.074219 22.464844 145.867188 22.464844 L 144.410156 22.464844 C 144.226562 22.464844 144.074219 22.410156 143.957031 22.296875 C 143.839844 22.183594 143.777344 22.042969 143.777344 21.875 C 143.777344 21.832031 143.78125 21.792969 143.789062 21.753906 L 144.09375 20.121094 C 144.128906 19.925781 144.234375 19.757812 144.40625 19.617188 C 144.582031 19.480469 144.773438 19.410156 144.980469 19.410156 L 146.4375 19.410156 C 146.621094 19.410156 146.773438 19.464844 146.890625 19.578125 C 147.007812 19.6875 147.070312 19.832031 147.070312 20 "/>
<path style=" stroke:none;fill-rule:nonzero;fill:rgb(0%,0%,0%);fill-opacity:1;" d="M 150.335938 19.410156 L 150.164062 20.324219 L 149.164062 20.324219 L 148.765625 22.464844 L 147.796875 22.464844 L 148.195312 20.324219 L 147.195312 20.324219 L 147.371094 19.410156 Z M 150.335938 19.410156 "/>
<path style=" stroke:none;fill-rule:nonzero;fill:rgb(100%,100%,100%);fill-opacity:1;" d="M 129.640625 22.5 C 129.484375 22.5 129.382812 22.460938 129.273438 22.40625 C 128.382812 21.964844 128.109375 20.957031 128.664062 20.125 C 128.796875 19.921875 128.96875 19.742188 129.128906 19.554688 C 129.191406 19.480469 129.261719 19.410156 129.332031 19.34375 C 129.605469 19.082031 129.785156 18.773438 129.757812 18.339844 C 130.507812 18.875 130.785156 19.597656 130.546875 20.421875 C 130.695312 20.382812 130.863281 20.226562 130.855469 19.96875 C 131.214844 20.246094 131.449219 20.953125 131.316406 21.4375 C 131.160156 22.011719 130.765625 22.355469 130.171875 22.5 C 130.292969 22.3125 130.363281 22.089844 130.34375 21.867188 C 130.335938 21.785156 130.316406 21.703125 130.289062 21.628906 C 130.261719 21.558594 130.222656 21.5 130.171875 21.445312 C 130.015625 21.265625 129.902344 21.066406 129.863281 20.824219 C 129.167969 21.074219 129.054688 21.984375 129.640625 22.5 "/>
</g>
</svg>
