<svg width="26" height="26" viewBox="0 0 26 26" fill="none" xmlns="http://www.w3.org/2000/svg">
<path d="M18.4184 0.499023C22.6534 0.499023 25.4996 3.47152 25.4996 7.89527V18.104C25.4996 22.5278 22.6534 25.499 18.4171 25.499H7.58213C3.34588 25.499 0.499634 22.5278 0.499634 18.104V7.89527C0.499634 3.47152 3.34588 0.499023 7.58213 0.499023H18.4184ZM9.05088 9.74777C7.25838 9.74777 5.79963 11.2065 5.79963 12.999C5.79963 14.7928 7.25838 16.2515 9.05088 16.2515C10.5159 16.2515 11.7434 15.2715 12.1484 13.9365H14.7884V15.314C14.7884 15.8315 15.2084 16.2515 15.7259 16.2515C16.2434 16.2515 16.6634 15.8315 16.6634 15.314V13.9365H18.3259V15.314C18.3259 15.8315 18.7459 16.2515 19.2634 16.2515C19.7809 16.2515 20.2009 15.8315 20.2009 15.314V12.999C20.2009 12.4815 19.7809 12.0615 19.2634 12.0615H12.1484C11.7434 10.7278 10.5159 9.74777 9.05088 9.74777ZM9.05101 11.6226C9.80976 11.6226 10.4285 12.2401 10.4285 13.0001C10.4285 13.7589 9.80976 14.3764 9.05101 14.3764C8.29226 14.3764 7.67351 13.7589 7.67351 13.0001C7.67351 12.2401 8.29226 11.6226 9.05101 11.6226Z" fill="black" fill-opacity="0.5"/>
</svg>
