<svg width="200" height="8" viewBox="0 0 200 8" fill="none" xmlns="http://www.w3.org/2000/svg">
<path d="M199.725 1.72065C199.655 1.68565 199.58 1.66202 199.503 1.65072C199.468 1.64826 199.433 1.64826 199.399 1.65072H199.237C198.838 1.62974 198.483 1.62974 198.113 1.62624C196.652 1.62624 195.205 1.62624 193.759 1.62624H191.547C191.565 1.56678 191.577 1.50594 191.583 1.44442C191.454 0.933935 191.249 1.00738 191.195 0.937448C191.091 0.896256 190.983 0.865784 190.872 0.846537L190.621 0.804581C190.463 0.783602 190.309 0.769611 190.154 0.755626C188.937 0.668214 187.756 0.654219 186.564 0.636737L183.006 0.60878H176.824C189.871 0.168226 178.921 0.0248535 138.54 0.0877898L111.202 0.0633333L33.6968 0.0108779H14.1275C10.8247 0.0108779 7.51469 -0.0135973 4.19391 0.0108779C3.36461 0.0108779 2.53531 0.0108864 1.68088 0.0633333C1.47266 0.0633333 1.26085 0.0633248 1.04186 0.0982894C0.930565 0.0982894 0.822863 0.0982808 0.682852 0.133245C0.59363 0.142344 0.505731 0.16112 0.420781 0.189201C0.395594 0.196733 0.371471 0.207293 0.348979 0.220657C0.303424 0.242129 0.260137 0.267903 0.219737 0.29759C0.146926 0.35796 0.0893177 0.433804 0.0513501 0.519277C0.0133824 0.604751 -0.00392845 0.697563 0.00074741 0.790582C0.0869083 1.17869 0.35975 1.25912 0.3059 1.23814C0.343299 1.25889 0.38306 1.27532 0.424372 1.28709H0.481811H0.553611C0.783259 1.31883 1.01461 1.3375 1.24649 1.34303L1.87474 1.36751C3.54052 1.40597 5.18835 1.40597 6.83617 1.41296H9.12303C9.10549 1.53407 9.13082 1.65738 9.19483 1.76261L9.25227 1.857H8.46605C7.9814 1.857 7.49674 1.857 6.99773 1.90245L6.61 1.93393C6.4533 1.95164 6.29839 1.98205 6.14689 2.02484C6.07204 2.04949 6.00083 2.08357 5.93508 2.12623C5.82545 2.19407 5.74026 2.2935 5.69136 2.41068C5.64246 2.52787 5.63228 2.65698 5.66223 2.78007C5.73403 3.01083 5.80583 3.08427 6.06791 3.22413C6.14383 3.24723 6.22205 3.26247 6.30126 3.26958C6.46281 3.26958 6.57051 3.26958 6.69257 3.26958L16.9924 3.36397H16.8344L16.5975 3.39545L16.4431 3.4339C16.3205 3.46292 16.2086 3.52468 16.12 3.61223C16.0651 3.67509 16.024 3.74829 15.9994 3.82728C15.9747 3.90626 15.9671 3.98935 15.9768 4.07135C15.9866 4.15335 16.0136 4.2325 16.0561 4.3039C16.0987 4.3753 16.1559 4.4374 16.2241 4.48634C16.2818 4.52362 16.3431 4.55525 16.4072 4.58075L16.6549 4.67166C16.9126 4.73944 17.1755 4.78621 17.4411 4.81151H17.2186C17.0283 4.82899 16.8416 4.84648 16.637 4.87794L16.4718 4.90942C16.3671 4.92757 16.2677 4.96816 16.181 5.02829C16.0769 4.96885 15.84 5.64017 16.0626 5.7031C16.1188 5.77752 16.1927 5.83751 16.278 5.87793C16.3495 5.91406 16.4255 5.9411 16.5041 5.95836C16.8907 6.03735 17.2834 6.08412 17.6781 6.09821C19.1644 6.17513 20.6219 6.17164 22.0902 6.17514L26.4773 6.14366L35.2441 6.06675C38.1628 6.06675 41.0923 6.06675 44.0146 6.06675L54.6483 6.10521H54.1529C48.5201 6.18562 44.0756 6.2136 40.9846 6.4164L40.6938 6.44087L40.5394 6.46185H40.5071C40.4759 6.47286 40.4485 6.49225 40.4281 6.51778C40.4108 6.5554 40.4063 6.59747 40.4153 6.63776C40.4244 6.67806 40.4465 6.71445 40.4784 6.74156L40.5215 6.75904H40.5394C40.9603 6.83997 41.3885 6.87864 41.8175 6.87443C43.7023 6.84646 45.9855 6.87443 48.5524 6.87443L57.0033 6.90241L95.2336 6.95834L148.56 7.02478L161.897 7.04225C166.345 7.04225 170.797 7.01079 175.245 7.0003L181.922 6.97232H185.261C185.537 6.97232 185.814 6.97232 186.097 6.97232H186.525H186.754C186.91 6.95174 187.062 6.90687 187.203 6.83945C187.799 6.38491 187.731 6.22058 187.498 6.14016C189.479 6.16464 191.486 6.20311 193.547 6.17514C194.064 6.17514 194.584 6.15065 195.116 6.11918C195.381 6.1017 195.647 6.08422 195.923 6.05275L196.343 5.99332C196.498 5.96185 196.652 5.93038 196.807 5.88843C196.902 5.85884 196.996 5.82262 197.087 5.78004C197.195 5.73442 197.29 5.6635 197.363 5.57357C197.437 5.48363 197.486 5.37743 197.508 5.26438C197.529 5.15134 197.521 5.03493 197.486 4.92545C197.45 4.81597 197.387 4.71679 197.302 4.63669C197.248 4.5854 197.184 4.54397 197.115 4.51432L197.23 4.48634L197.406 4.43739L197.496 4.41291L197.636 4.34998C197.708 4.28354 197.758 4.34999 197.995 4.01783C198.036 3.93334 198.06 3.84162 198.064 3.74815C198.068 3.65467 198.053 3.56132 198.02 3.47362C197.986 3.38591 197.935 3.30565 197.869 3.23757C197.803 3.16949 197.724 3.11498 197.636 3.07728L197.542 3.0458C197.959 3.01783 198.379 2.97937 198.813 2.91644C199.007 2.88147 199.194 2.86749 199.395 2.81505L199.567 2.76959C199.603 2.76959 199.643 2.7451 199.711 2.71363C199.707 2.97587 200.353 2.00736 199.725 1.72065ZM199.205 1.69617C199.19 1.6682 199.194 1.6752 199.205 1.69617V1.69617Z" fill="#D1170F"/>
</svg>
