<svg width="30" height="30" viewBox="0 0 30 30" fill="none" xmlns="http://www.w3.org/2000/svg">
<path d="M22.0259 22.0679C22.509 21.588 23.2835 21.588 23.7667 22.0679L26.96 24.6455H27.0155C27.6615 25.2985 27.6615 26.3572 27.0155 27.0102C26.3694 27.6632 25.322 27.6632 24.6759 27.0102L22.0259 23.9731L21.9253 23.8596C21.738 23.6225 21.6345 23.3269 21.6345 23.0205C21.6345 22.663 21.7754 22.3202 22.0259 22.0679ZM13.222 2.5C16.0657 2.5 18.7929 3.6418 20.8037 5.6742C22.8145 7.70661 23.9441 10.4631 23.9441 13.3374C23.9441 19.3227 19.1437 24.1748 13.222 24.1748C7.30043 24.1748 2.5 19.3227 2.5 13.3374C2.5 7.35207 7.30043 2.5 13.222 2.5Z" fill="black" fill-opacity="0.5"/>
</svg>
